<?xml version="1.0" encoding="utf-8" ?>
<svg baseProfile="full" height="370.5" version="1.1" width="361.5" xmlns="http://www.w3.org/2000/svg" xmlns:ev="http://www.w3.org/2001/xml-events" xmlns:xlink="http://www.w3.org/1999/xlink"><defs /><circle cx="232.5" cy="229.5" fill="black" r="15.087078094482422" /><circle cx="138.0" cy="136.5" fill="black" r="15.570313453674316" /><polyline fill="none" points="235,268 234,270 231,270 225,276 225,285 226,286 226,288 231,292 241,292 243,291 244,291 247,288 247,274 243,270 241,270 240,268 237,268" stroke="black" stroke-width="7.2562795" /><polyline fill="none" points="234,270 235,268 240,268 241,270 243,270 247,274 247,288 244,291 243,291 241,292 231,292 226,288 226,286 225,285 225,276 228,273 229,273 235,279 235,280 235,279 229,273 232,270" stroke="black" stroke-width="6.0969" /><polyline fill="none" points="135,268 133,270 130,270 126,274 126,285 127,286 127,288 129,289 133,289 135,291 136,291 138,289 144,289 145,288 145,286 147,285 147,276 142,271 142,270 141,270 139,268 136,268" stroke="black" stroke-width="7.3271327" /><polyline fill="none" points="133,270 135,268 139,268 144,273 139,277 138,277 141,277 144,274 145,274 147,276 147,283 145,285 145,286 142,289 138,289 136,291 135,291 133,289 130,289 126,285 126,274 129,271 130,271 132,270" stroke="black" stroke-width="7.0172095" /><polyline fill="none" points="234,75 232,76 231,76 229,78 228,78 226,79 226,81 223,84 223,90 225,91 225,93 226,94 226,96 228,97 232,97 234,99 235,99 237,97 241,97 246,93 246,82 244,81 244,79 243,78 241,78 240,76 238,76 237,75 235,75" stroke="black" stroke-width="6.4594326" /><polyline fill="none" points="232,76 234,75 237,75 238,76 240,76 241,78 243,78 244,79 244,81 246,82 246,93 241,97 237,97 235,99 234,99 232,97 229,97 225,93 225,91 223,90 223,84 231,76" stroke="black" stroke-width="6.993799" /><polyline fill="none" points="135,73 133,75 130,75 124,81 124,91 126,93 126,94 129,97 130,97 132,99 142,99 144,97 145,97 147,96 147,94 148,93 148,88 150,87 148,85 148,81 147,79 147,78 145,76 144,76 142,75 141,75 139,73 136,73" stroke="black" stroke-width="7.07535" /><polyline fill="none" points="133,75 135,73 139,73 141,75 142,75 148,81 148,85 150,87 148,88 148,93 142,99 132,99 130,97 129,97 126,94 126,93 124,91 124,81 129,76 130,76 132,75" stroke="black" stroke-width="6.65442" /><polyline fill="none" points="177,24 168,30 166,43 181,64 168,81 166,90 184,114 163,136 144,120 126,120 120,127 120,136 138,159 115,181 90,156 103,141 106,126 100,121 75,123 70,127 70,133 90,156 63,183 48,168 37,165 28,174 27,189 31,198 40,201 49,198 64,186 88,210 70,231 69,241 75,246 93,247 105,243 106,234 102,223 90,210 117,183 141,207 121,229 121,241 124,246 132,249 142,247 162,231 184,255 166,280 168,292 181,306 169,319 166,334 174,343 184,346 198,343 202,331 198,319 186,307 198,297 202,283 184,255 207,231 232,247 244,246 249,241 250,226 234,205 253,184 280,211 265,226 261,237 262,241 274,249 294,247 298,244 298,232 282,211 306,186 321,199 334,201 340,192 340,178 333,168 327,168 306,186 280,159 295,139 298,130 295,124 285,120 274,120 262,129 262,141 277,157 258,180 252,181 231,160 246,144 249,135 247,126 243,121 229,121 207,136 187,115 202,99 204,84 184,64 201,48 204,33 193,24 178,24" stroke="black" stroke-width="7.5923123" /><polyline fill="none" points="181,309 183,307 186,307 189,310 189,312 190,313 192,313 196,318 196,319 199,322 199,325 201,327 201,330 202,331 201,333 201,339 195,345 190,345 189,346 184,346 183,345 177,345 174,342 172,342 168,337 168,336 166,334 166,325 168,324 168,322 177,313 178,313 180,312 180,310" stroke="black" stroke-width="7.4524918" /><polyline fill="none" points="183,259 184,258 190,264 190,265 196,271 196,273 199,276 199,277 201,279 201,282 202,283 202,286 201,288 201,292 198,295 198,297 192,303 190,303 189,304 187,304 184,307 183,307 180,304 180,303 178,301 177,301 168,292 168,291 166,289 166,280 168,279 168,277 169,276 169,274 172,271 172,270 177,265 177,264 178,262 180,262 181,261" stroke="black" stroke-width="7.675659" /><polyline fill="none" points="279,214 280,213 282,213 285,216 285,217 297,229 297,231 298,232 298,243 294,247 291,247 289,249 276,249 274,247 270,247 268,246 267,246 262,241 262,240 261,238 261,237 262,235 262,232 264,231 264,229 277,216" stroke="black" stroke-width="7.1964226" /><polyline fill="none" points="177,214 178,213 187,213 190,216 192,216 205,229 205,231 204,232 204,235 187,252 186,252 184,253 183,253 171,241 171,240 166,235 166,234 165,234 160,229 166,223 166,222 169,219 171,219 175,214" stroke="black" stroke-width="7.494685" /><polyline fill="none" points="87,213 88,211 90,211 93,214 93,216 103,226 103,228 105,229 105,232 106,234 106,238 105,240 105,241 102,244 100,244 99,246 94,246 93,247 82,247 81,246 76,246 75,244 72,244 69,241 69,234 72,231 72,229 76,225 76,223 85,214" stroke="black" stroke-width="7.88873" /><polyline fill="none" points="139,210 141,208 142,208 145,211 145,213 154,222 154,223 156,225 157,225 160,228 160,229 156,234 156,235 147,244 145,244 142,247 136,247 135,249 132,249 130,247 127,247 121,241 121,229 123,228 123,226 138,211" stroke="black" stroke-width="8.167084" /><polyline fill="none" points="231,207 232,205 237,210 237,211 249,223 249,226 250,228 250,238 249,240 249,241 244,246 240,246 238,247 232,247 231,246 228,246 226,244 225,244 222,241 220,241 210,231 211,229 211,228 228,211 228,210 229,208" stroke="black" stroke-width="7.323921" /><polyline fill="none" points="325,169 327,168 333,168 339,174 339,177 340,178 340,192 339,193 339,195 337,196 337,198 334,201 325,201 324,199 321,199 318,196 316,196 310,190 310,189 307,186 309,184 309,183 321,171 322,171 324,169" stroke="black" stroke-width="7.0961246" /><polyline fill="none" points="36,166 37,165 42,165 43,166 45,166 48,169 49,169 58,178 58,180 60,180 63,183 63,184 49,198 48,198 46,199 42,199 40,201 39,201 37,199 34,199 30,195 30,193 28,192 28,190 27,189 27,178 28,177 28,174 31,171 31,169 33,168 34,168" stroke="black" stroke-width="7.934169" /><polyline fill="none" points="228,160 229,159 234,163 234,165 249,180 250,180 253,183 250,186 250,187 232,205 231,205 216,190 216,189 214,187 214,177 216,175 216,174 225,165 225,163 226,162" stroke="black" stroke-width="7.7495537" /><polyline fill="none" points="138,160 139,159 141,159 147,165 148,165 157,174 157,175 159,177 159,187 157,189 157,190 156,192 156,193 150,199 150,201 148,202 147,202 145,204 144,204 141,207 117,183 117,181 120,178 121,178 136,163 136,162" stroke="black" stroke-width="7.367442" /><polyline fill="none" points="277,159 279,157 283,162 283,163 304,184 304,186 303,187 303,189 291,201 291,202 288,205 286,205 280,211 253,184 253,183 256,180 258,180 274,163 274,162 276,160" stroke="black" stroke-width="7.5137997" /><polyline fill="none" points="88,159 90,157 91,157 115,181 112,184 112,187 94,205 93,205 88,210 69,190 69,189 67,189 63,184 87,160" stroke="black" stroke-width="7.796279" /><polyline fill="none" points="162,138 163,136 171,144 172,144 174,145 175,145 177,147 178,147 180,148 184,148 186,150 187,150 189,148 193,148 195,147 196,147 198,145 199,145 208,136 213,141 213,142 225,154 225,156 228,159 225,162 225,163 223,165 223,166 216,174 216,175 214,177 214,187 216,189 216,190 219,193 219,195 226,202 228,202 231,205 228,208 228,210 222,216 222,217 214,225 213,225 213,226 208,231 207,231 204,228 204,226 195,217 193,217 192,216 190,216 187,213 178,213 177,214 175,214 171,219 169,219 160,228 147,214 147,213 142,208 142,207 145,204 147,204 151,199 151,198 156,193 156,192 157,190 157,189 159,187 159,177 157,175 157,174 147,163 145,163 141,159 156,144 157,144 159,142 159,141 160,139" stroke="black" stroke-width="7.657485" /><polyline fill="none" points="181,171 180,172 177,172 172,177 172,178 171,180 171,189 172,190 172,192 177,196 189,196 190,195 192,195 195,192 195,187 196,186 196,181 195,180 195,177 193,175 193,174 192,174 189,171 183,171" stroke="black" stroke-width="7.742917" /><polyline fill="none" points="180,172 181,171 189,171 195,177 195,180 196,181 196,186 195,187 195,192 192,195 190,195 189,196 177,196 172,192 172,190 171,189 171,180 172,178 172,177 175,174 177,174 178,172" stroke="black" stroke-width="7.1353498" /><polyline fill="none" points="228,123 229,121 243,121 247,126 247,129 249,130 249,135 247,136 247,139 246,141 246,144 235,154 234,154 229,159 228,159 225,156 225,154 213,142 213,141 210,138 210,136 220,126 222,126 223,124 225,124 226,123" stroke="black" stroke-width="7.3341684" /><polyline fill="none" points="78,123 79,121 100,121 102,123 103,123 106,126 106,135 105,136 105,138 103,139 103,141 90,154 73,138 73,136 70,133 70,127 75,123 76,123" stroke="black" stroke-width="7.7041154" /><polyline fill="none" points="274,121 276,120 285,120 286,121 291,121 294,124 295,124 297,126 297,129 298,130 297,132 297,136 291,142 291,144 288,147 288,148 279,157 277,157 274,154 274,153 273,151 271,151 265,145 265,144 262,141 262,129 268,123 270,123 271,121 273,121" stroke="black" stroke-width="7.6118073" /><polyline fill="none" points="127,120 129,118 139,118 141,120 144,120 145,121 147,121 150,124 151,124 156,129 156,130 162,136 159,139 159,141 145,154 144,154 139,159 124,144 124,142 121,139 121,138 120,136 120,129 121,127 121,126 126,121" stroke="black" stroke-width="7.795349" /><polyline fill="none" points="184,115 186,114 190,118 190,120 207,136 196,147 193,147 192,148 189,148 187,150 186,150 184,148 180,148 178,147 177,147 175,145 174,145 171,142 169,142 165,138 165,136 181,120 181,118 183,117" stroke="black" stroke-width="7.7461243" /><polyline fill="none" points="181,66 183,64 184,64 193,73 195,73 201,79 201,81 202,82 202,84 204,85 204,96 198,102 198,103 193,108 192,108 186,114 184,114 181,111 181,109 180,109 177,106 177,105 171,99 171,97 169,96 169,94 168,93 168,91 166,90 166,84 168,82 168,81 172,76 172,75 175,72 177,72 180,69 180,67" stroke="black" stroke-width="7.2756596" /><polyline fill="none" points="175,25 177,24 193,24 195,25 196,25 199,28 201,28 202,30 202,31 204,33 204,42 202,43 202,45 201,46 201,48 187,61 186,61 183,64 180,61 180,60 169,49 169,48 168,46 168,45 166,43 166,33 168,31 168,30 171,27 172,27 174,25" stroke="black" stroke-width="7.538871" /></svg>